<svg xmlns="http://www.w3.org/2000/svg" xmlns:xlink="http://www.w3.org/1999/xlink" version="1.0" x="0px" y="0px" viewBox="0 0 100 125" enable-background="new 0 0 100 100" xml:space="preserve"><path d="M40,10c-5.521,0-10,4.473-10,10c0,5.521,4.479,10,10,10c5.521,0,10-4.479,10-10C50,14.473,45.521,10,40,10z"/><polygon points="39.115,72.278 21.381,90 16.667,85.286 34.399,67.559 "/><path d="M16.667,36.667h26.667v23.327L54.31,70.977c1.296,1.296,2.357,3.857,2.357,5.69V90H50V76.094L36.667,62.761V43.333h-20  V36.667z"/><polygon points="58.62,61.38 63.333,56.667 48.334,41.667 48.334,51.094 "/><circle cx="75" cy="81.667" r="8.333"/><text x="0" y="115" fill="#000000" font-size="5px" font-weight="bold" font-family="'Helvetica Neue', Helvetica, Arial-Unicode, Arial, Sans-serif">Created by Danil Polshin</text><text x="0" y="120" fill="#000000" font-size="5px" font-weight="bold" font-family="'Helvetica Neue', Helvetica, Arial-Unicode, Arial, Sans-serif">from the Noun Project</text></svg>