<svg xmlns="http://www.w3.org/2000/svg" xmlns:xlink="http://www.w3.org/1999/xlink" version="1.1" x="0px" y="0px" viewBox="0 0 98 122.5" enable-background="new 0 0 98 98" xml:space="preserve"><g><path d="M24.2899,32.6674l-1.21-1.5116c-0.5195,0.4164-1.0309,0.8664-1.5196,1.3386l1.3452,1.3925   C23.3512,33.4563,23.8168,33.046,24.2899,32.6674z"/><path d="M29.0422,29.9519c0.571-0.2108,1.1576-0.39,1.7442-0.5322l-0.4575-1.8812c-0.658,0.1598-1.3164,0.3611-1.9569,0.5975   L29.0422,29.9519z"/><path d="M25.7798,31.592c0.5152-0.3332,1.0498-0.6395,1.5886-0.9113l-0.8707-1.729c-0.6008,0.3025-1.1963,0.6438-1.7692,1.0144   L25.7798,31.592z"/><path d="M21.6297,35.2297l-1.4587-1.2724c-0.433,0.4963-0.8574,1.0229-1.2616,1.5655l1.5532,1.1562   C20.8371,36.1765,21.2294,35.6887,21.6297,35.2297z"/><path d="M78.0275,34.196c-0.4396-0.5171-0.9004-1.0153-1.3693-1.4809l-1.3641,1.3736c0.4306,0.4278,0.8541,0.8853,1.2578,1.3608   L78.0275,34.196z"/><path d="M71.7797,29.0968c-0.6064-0.3176-1.2313-0.6031-1.8576-0.8475l-0.7043,1.8037c0.5601,0.2184,1.1198,0.4736,1.6629,0.7586   L71.7797,29.0968z"/><path d="M75.1593,31.3552c-0.5261-0.4349-1.0744-0.8432-1.6293-1.2148l-1.0767,1.609c0.501,0.3356,0.9969,0.7048,1.4733,1.0985   L75.1593,31.3552z"/><path d="M67.4859,29.4891l0.4897-1.8727c-0.6589-0.1725-1.3339-0.3082-2.0051-0.4041l-0.2732,1.9172   C66.2962,29.2145,66.8979,29.3355,67.4859,29.4891z"/><path d="M90.4001,55.9327l0.8588-0.9453l-1.1424-0.5715c-7.4838-3.7417-8.1493-5.0826-9.7559-8.3233   c-3.6907-7.438-8.3392-14.29-16.4377-14.5775c-4.8747-4.6592-11.1669-6.5967-17.5261-5.8308   c-4.7238,0.5705-8.8886,2.5564-12.3178,5.8303c-8.1156,0.2835-11.826,6.6501-16.6338,13.8421   c-3.2766,4.9007-4.6327,6.9289-9.5272,9.0361l-1.2474,0.537l0.9146,1.004c0.13,0.1427,2.7836,2.9566,8.1696,1.4511   C10.622,62.2072,1.8672,62.5387,1,62.7798l1.9153,1.4128c0.0657,0.0477,6.1064,4.3821,14.0024,0.3479   c-0.6239,1.1004-1.7522,2.404-3.7913,3.4174l-2.4149,1.2006l2.6271,0.6093c0.1309,0.0303,1.3745,0.3072,3.1036,0.3072   c9.6451-0.0016,10.9042-7.2426,13.5652-12.2975l0.3271,0.2949C34.324,64.9181,41.9856,69.2201,50.29,68.7269   c7.0891-0.4223,13.5273-4.3178,17.2202-10.4213l0.0197-0.0053c0.5498-0.9903,0.3151-0.5684,0.4288-0.7736   c1.3498,2.9727,2.4842,5.8559,3.8371,7.8524c2.6626,3.9317,6.8774,4.696,9.7531,4.696c2.2685-0.0006,3.3686-0.3752,5.6725-0.9019   c-1.3229-0.8584-4.1113-1.5014-5.9443-4.531c7.7943,3.856,13.7183-0.4018,13.7836-0.4505L97,62.7576   c-0.9778-0.2675-9.5501-0.3725-14.7852-5.3795C87.6118,58.8997,90.2701,56.0759,90.4001,55.9327z M65.831,36.9917l-1.3404,4.984   l-7.065,1.894l-5.1574-5.1579l1.902-7.0941l4.9488-1.3257C61.8652,31.9478,64.1701,34.2489,65.831,36.9917z M56.0544,45.2376   l-1.894,7.0693l-7.0677,1.8937l-5.1564-5.156l1.8938-7.0651l7.0686-1.8975L56.0544,45.2376z M56.5582,28.9737l-2.9192,0.782   l-2.1163-2.1163C53.2827,27.8664,54.9745,28.3122,56.5582,28.9737z M39.4981,29.9124c2.3841-1.3193,4.7587-2.0348,7.2739-2.3192   c0.4594-0.0523,0.8805-0.0974,1.851-0.1157l3.6472,3.6472l-1.89,7.0678l-7.0728,1.8951l-4.6633-4.6624l-0.4904-0.4903   L39.4981,29.9124z M37.0622,31.5248l-0.7785,2.9086l-2.9067,0.7761C34.4385,33.8238,35.6764,32.5861,37.0622,31.5248z    M16.4039,68.121c3.3057-2.7959,3.1927-5.644,3.321-7.6842c-0.7115,0.2809-6.1061,5.5858-13.0991,3.4013   c10.5458-2.3336,12.8118-8.0595,12.9105-8.3233l0.891-2.379c-0.9339,0.3068-5.9762,4.0503-10.1511,2.291   c4.1945-2.1374,5.829-4.5826,8.7785-8.9945c4.2299-6.325,7.1891-11.4619,13.0183-12.7228   c-0.5746,0.7223-1.1077,1.479-1.5877,2.2719l-0.0184,0.0049c-2.6688,4.8088-2.8407,7.0961-3.0932,11.5696l0.0102,0.0102   c0.0508,2.6376,0.5753,5.1596,1.4932,7.4869l-0.0093,0.0094l0.0837,0.2018C25.4196,62.6303,24.6441,68.1019,16.4039,68.121z    M31.7655,37.6435l5.0191-1.3404l5.1556,5.1556l-1.8935,7.067l-7.0714,1.8937l-3.6471-3.6467   C29.3891,43.5347,30.1849,40.4975,31.7655,37.6435z M30.9269,54.3237h-0.2433c-0.5796-1.4732-0.9843-3.0305-1.1934-4.6509   l2.1157,2.1159L30.9269,54.3237z M32.1424,57.2677l1.3254-4.948l7.0992-1.9058l5.1571,5.1571l-1.8981,7.0684l-4.9895,1.3372   C36.096,62.316,33.7971,60.0122,32.1424,57.2677z M41.3828,65.2988l2.944-0.7892l2.1426,2.1424   C44.6909,66.4225,42.9809,65.9717,41.3828,65.2988z M58.498,64.3772c-2.7648,1.5306-5.8141,2.3744-9.1286,2.4369l-3.6684-3.6689   l1.8978-7.0693l7.0647-1.8939l5.1756,5.1753L58.498,64.3772z M60.9326,62.7653l0.7762-2.9072l2.9089-0.7784   C63.5563,60.4657,62.3185,61.7037,60.9326,62.7653z M66.2299,56.644l-5.0224,1.3439l-5.1743-5.1748l1.8978-7.0693l7.0645-1.894   l3.6693,3.6693C68.604,50.7361,67.8393,53.7354,66.2299,56.644z M66.3606,42.4772l0.7908-2.94   c0.6718,1.5969,1.1222,3.3053,1.3514,5.0823L66.3606,42.4772z M91.2627,63.8457c-2.517,0.7549-6.6193,1.0385-11.364-2.2717   l-1.8595-1.2975l0.3488,2.2405c0.0241,0.1546,0.5247,3.1504,3.3049,5.604c-2.4305-0.0043-6.0984-0.5852-8.2944-3.8277   c-1.4269-2.1064-2.627-5.4118-4.3614-9.027c1.8249-4.5073,1.5565-8.2516,1.5816-8.5309l-0.0097-0.0097   c-0.0802-4.1729-1.3254-8.7922-4.6772-13.0139c5.9949,1.303,9.7868,7.3768,12.6939,13.2411   c1.6449,3.3163,2.4536,4.9465,9.1528,8.4438c-4.1813,1.8368-9.3066-1.9719-10.2385-2.2745l0.9203,2.3997   C78.563,55.7904,80.9084,61.5953,91.2627,63.8457z"/><path d="M33.3411,86.7698c0,3.9879,8.0633,6.1395,15.6501,6.1395s15.6501-2.1516,15.6501-6.1395c0-3.9879-8.0633-6.14-15.6501-6.14   S33.3411,82.7819,33.3411,86.7698z M48.9913,82.5658c8.4967,0,13.7141,2.4484,13.7141,4.2039c0,1.755-5.2173,4.2035-13.7141,4.2035   s-13.7141-2.4484-13.7141-4.2035C35.2772,85.0143,40.4945,82.5658,48.9913,82.5658z"/><path d="M48.9913,5.0908c-7.5868,0-15.6501,2.1521-15.6501,6.14s8.0633,6.1395,15.6501,6.1395s15.6501-2.1516,15.6501-6.1395   S56.5781,5.0908,48.9913,5.0908z M48.9913,15.4342c-8.4967,0-13.7141-2.4484-13.7141-4.2035c0-1.7555,5.2173-4.2039,13.7141-4.2039   s13.7141,2.4484,13.7141,4.2039C62.7053,12.9858,57.488,15.4342,48.9913,15.4342z"/><rect x="47.9542" y="74.3253" width="1.9361" height="1.9361"/><rect x="44.0821" y="74.3253" width="1.9361" height="1.9361"/><rect x="40.21" y="74.3253" width="1.9361" height="1.9361"/><rect x="51.8263" y="74.3253" width="1.9361" height="1.9361"/><rect x="55.6985" y="74.3253" width="1.0229" height="1.9361"/></g><text x="0" y="113" fill="#000000" font-size="5px" font-weight="bold" font-family="'Helvetica Neue', Helvetica, Arial-Unicode, Arial, Sans-serif">Created by ProSymbols</text><text x="0" y="118" fill="#000000" font-size="5px" font-weight="bold" font-family="'Helvetica Neue', Helvetica, Arial-Unicode, Arial, Sans-serif">from the Noun Project</text></svg>